<?xml version="1.0" standalone="no"?>
<!DOCTYPE svg PUBLIC "-//W3C//DTD SVG 20010904//EN"
 "http://www.w3.org/TR/2001/REC-SVG-20010904/DTD/svg10.dtd">
<svg version="1.0" xmlns="http://www.w3.org/2000/svg"
 width="474.000000pt" height="336.000000pt" viewBox="0 0 474.000000 336.000000"
 preserveAspectRatio="xMidYMid meet">

<g transform="translate(0.000000,336.000000) scale(0.100000,-0.100000)"
fill="#000000" stroke="none">
<path d="M3030 3331 c-30 -10 -68 -25 -85 -33 -73 -39 -182 -181 -218 -283 -8
-23 -20 -82 -27 -131 -11 -79 -10 -104 4 -185 14 -74 15 -110 8 -169 -17 -135
-101 -301 -199 -390 -45 -43 -46 -44 -30 -69 9 -14 37 -63 63 -108 26 -46 50
-83 53 -83 19 1 214 524 226 605 4 25 11 48 16 51 5 2 23 -3 41 -13 24 -13 57
-17 123 -18 80 0 95 3 136 27 69 41 133 117 168 202 44 107 54 164 48 285 -4
88 -9 116 -32 164 -32 69 -82 122 -139 148 -51 23 -85 23 -156 0z m111 -91
c55 -15 114 -85 128 -149 40 -186 -50 -421 -184 -482 -107 -49 -244 10 -274
118 -18 64 -13 203 9 277 31 100 103 188 185 227 45 21 83 24 136 9z"/>
<path d="M1503 3315 c-92 -47 -147 -139 -168 -285 -11 -70 -11 -97 0 -155 25
-126 59 -203 125 -278 56 -63 111 -94 196 -108 60 -11 76 -10 119 4 27 10 52
14 56 10 3 -5 28 -69 54 -143 25 -74 91 -227 145 -340 54 -113 110 -243 125
-290 15 -47 69 -170 120 -275 51 -104 96 -200 99 -212 4 -13 27 -63 52 -113
24 -50 44 -92 44 -95 0 -2 43 -93 95 -202 53 -109 105 -218 116 -243 11 -25
72 -150 135 -278 63 -129 113 -239 111 -245 -5 -16 -495 976 -538 1090 -5 14
-12 24 -14 21 -5 -4 27 -77 132 -308 14 -30 43 -95 65 -145 50 -114 240 -498
291 -590 63 -113 68 -120 77 -104 7 12 5 52 -14 224 -11 99 -206 773 -327
1130 -30 87 -112 280 -186 435 -61 128 -67 138 -149 214 -119 111 -198 211
-247 314 l-42 87 0 255 c0 237 -2 260 -23 326 -12 40 -44 105 -71 146 -75 116
-153 168 -261 175 -56 4 -73 1 -117 -22z m184 -90 c139 -70 216 -238 199 -434
-12 -125 -56 -182 -158 -203 -71 -14 -127 2 -182 52 -84 78 -130 201 -129 346
1 133 37 208 118 245 55 25 92 24 152 -6z m714 -1547 c16 -30 -18 -73 -57 -73
-22 0 -31 6 -39 29 -8 25 -6 31 17 51 31 27 63 24 79 -7z"/>
<path d="M481 2655 c-193 -54 -356 -204 -414 -380 -29 -85 -28 -247 1 -328 71
-196 204 -308 519 -438 200 -83 286 -133 354 -207 91 -99 124 -203 108 -342
-16 -140 -125 -257 -279 -300 -147 -41 -356 13 -477 123 -69 64 -122 142 -185
273 -27 57 -53 106 -57 108 -4 3 -13 1 -20 -3 -11 -7 -10 -41 3 -187 8 -99 18
-225 22 -282 4 -56 10 -105 15 -107 4 -3 26 2 49 11 54 22 157 14 260 -20 121
-39 251 -52 377 -37 298 34 493 188 557 438 23 87 16 257 -12 337 -70 194
-205 306 -567 471 -252 115 -333 174 -388 285 -29 59 -31 212 -4 275 94 213
342 280 557 150 100 -61 170 -150 247 -311 38 -81 48 -95 66 -92 20 3 22 9 22
76 -1 288 -7 469 -14 480 -7 11 -17 8 -51 -17 -65 -47 -105 -48 -245 -5 -108
33 -134 37 -255 40 -99 3 -149 0 -189 -11z"/>
<path d="M3357 2623 c-17 -17 -2 -31 51 -47 72 -23 124 -75 141 -139 15 -61
16 -1595 0 -1650 -12 -43 -59 -101 -99 -122 -16 -8 -46 -17 -69 -21 -43 -7
-67 -26 -56 -44 4 -7 133 -10 386 -10 366 0 379 1 379 19 0 15 -15 24 -70 40
-87 27 -133 69 -155 143 -12 42 -15 118 -15 430 0 239 4 378 10 378 5 0 74 2
152 4 297 10 370 -19 442 -172 28 -59 51 -81 67 -65 4 4 5 135 2 291 -5 251
-8 282 -22 282 -11 0 -27 -24 -45 -66 -16 -36 -42 -79 -58 -95 -55 -55 -85
-62 -291 -67 -103 -2 -203 -1 -222 2 l-35 7 0 382 c0 210 4 388 9 396 7 11 54
12 247 9 220 -4 244 -6 299 -27 110 -43 164 -93 225 -213 44 -85 56 -97 75
-77 11 12 11 35 0 139 -7 69 -16 164 -20 213 l-7 87 -657 0 c-362 0 -661 -3
-664 -7z"/>
<path d="M2408 2059 c-41 -23 -42 -47 -5 -123 20 -39 50 -107 67 -151 17 -43
37 -90 45 -104 15 -30 12 -35 49 84 l25 79 -54 89 c-30 49 -55 92 -55 96 0 11
-35 41 -46 41 -5 0 -17 -5 -26 -11z"/>
<path d="M2126 1544 c-9 -42 -33 -122 -51 -177 -37 -109 -96 -297 -236 -752
-66 -214 -102 -353 -115 -440 -8 -55 -17 -112 -20 -127 -4 -20 -2 -28 8 -28
23 0 89 125 232 441 74 162 149 328 168 369 19 41 70 155 113 253 44 98 85
177 92 177 7 0 13 -4 13 -8 0 -5 7 -17 15 -28 15 -19 15 -19 8 1 -15 43 -195
395 -202 395 -4 0 -15 -34 -25 -76z"/>
</g>
</svg>
